<svg width="68" height="18" viewBox="0 0 68 18" fill="none" xmlns="http://www.w3.org/2000/svg">
<path d="M18.56 0.412V17.5H15.704V4.324L10.952 17.5H8.504L3.632 4.324V17.5H0.8V0.412H5L9.776 13.78L14.384 0.412H18.56ZM32.8561 13.636C32.5521 14.98 31.8881 16.028 30.8641 16.78C29.8561 17.532 28.6481 17.908 27.2401 17.908C25.3681 17.908 23.8801 17.308 22.7761 16.108C21.6881 14.892 21.1441 13.34 21.1441 11.452C21.1441 9.516 21.7041 7.916 22.8241 6.652C23.9601 5.388 25.4001 4.756 27.1441 4.756C28.9521 4.756 30.3841 5.38 31.4401 6.628C32.4961 7.86 33.0241 9.548 33.0241 11.692V11.98H23.8801C23.9121 13.228 24.2241 14.196 24.8161 14.884C25.4081 15.556 26.2321 15.892 27.2881 15.892C28.0401 15.892 28.6481 15.716 29.1121 15.364C29.5921 14.996 29.9681 14.42 30.2401 13.636H32.8561ZM30.2881 10.156C30.2081 9.116 29.8801 8.3 29.3041 7.708C28.7441 7.1 28.0161 6.796 27.1201 6.796C26.2241 6.796 25.4961 7.084 24.9361 7.66C24.3921 8.236 24.0561 9.068 23.9281 10.156H30.2881ZM44.9201 8.716H42.3041C42.1441 7.404 41.2481 6.748 39.6161 6.748C38.9121 6.748 38.3681 6.876 37.9841 7.132C37.6001 7.388 37.4081 7.74 37.4081 8.188C37.4081 8.332 37.4161 8.46 37.4321 8.572C37.4641 8.684 37.5121 8.788 37.5761 8.884C37.6561 8.964 37.7201 9.036 37.7681 9.1C37.8321 9.164 37.9361 9.228 38.0801 9.292C38.2241 9.356 38.3361 9.412 38.4161 9.46C38.5121 9.492 38.6641 9.54 38.8721 9.604C39.0801 9.652 39.2401 9.692 39.3521 9.724C39.4801 9.756 39.6801 9.804 39.9521 9.868C40.2241 9.916 40.4321 9.956 40.5761 9.988C41.2001 10.132 41.6481 10.244 41.9201 10.324C42.2081 10.388 42.6161 10.532 43.1441 10.756C43.6881 10.964 44.0881 11.188 44.3441 11.428C44.6001 11.652 44.8321 11.972 45.0401 12.388C45.2641 12.788 45.3761 13.252 45.3761 13.78C45.3761 15.028 44.8881 16.02 43.9121 16.756C42.9361 17.492 41.6241 17.86 39.9761 17.86C38.2161 17.86 36.8641 17.492 35.9201 16.756C34.9761 16.02 34.4721 14.948 34.4081 13.54H37.0241C37.1681 15.092 38.1681 15.868 40.0241 15.868C40.8241 15.868 41.4641 15.708 41.9441 15.388C42.4401 15.052 42.6881 14.612 42.6881 14.068C42.6881 13.796 42.6241 13.564 42.4961 13.372C42.3841 13.18 42.1921 13.02 41.9201 12.892C41.6481 12.748 41.3841 12.644 41.1281 12.58C40.8881 12.5 40.5601 12.412 40.1441 12.316C40.0801 12.3 40.0321 12.292 40.0001 12.292C39.9681 12.276 39.9281 12.268 39.8801 12.268C39.8321 12.252 39.7841 12.236 39.7361 12.22C37.9761 11.788 36.8561 11.452 36.3761 11.212C35.2401 10.668 34.6721 9.764 34.6721 8.5C34.6721 7.332 35.1201 6.42 36.0161 5.764C36.9121 5.092 38.1521 4.756 39.7361 4.756C41.2561 4.756 42.4961 5.084 43.4561 5.74C44.4321 6.396 44.9201 7.388 44.9201 8.716ZM53.5974 5.116V7.108H51.1014V13.636C51.1014 14.02 51.1094 14.292 51.1254 14.452C51.1414 14.596 51.1894 14.764 51.2694 14.956C51.3494 15.132 51.4854 15.252 51.6774 15.316C51.8854 15.38 52.1654 15.412 52.5174 15.412C52.9654 15.412 53.3254 15.396 53.5974 15.364V17.524C53.0534 17.588 52.4374 17.62 51.7494 17.62C51.2694 17.62 50.8454 17.58 50.4774 17.5C50.1254 17.436 49.8294 17.356 49.5894 17.26C49.3494 17.164 49.1494 17.004 48.9894 16.78C48.8294 16.54 48.7014 16.348 48.6054 16.204C48.5254 16.044 48.4614 15.772 48.4134 15.388C48.3814 15.004 48.3654 14.716 48.3654 14.524C48.3654 14.316 48.3654 13.964 48.3654 13.468C48.3654 13.404 48.3654 13.356 48.3654 13.324C48.3654 13.276 48.3654 13.228 48.3654 13.18C48.3654 13.116 48.3654 13.06 48.3654 13.012V7.108H46.3014V5.116H48.3654V1.396H51.1014V5.116H53.5974ZM61.2776 4.756C63.1656 4.756 64.6696 5.348 65.7896 6.532C66.9096 7.716 67.4696 9.308 67.4696 11.308C67.4696 13.324 66.9096 14.924 65.7896 16.108C64.6856 17.292 63.1816 17.884 61.2776 17.884C59.3416 17.884 57.8056 17.292 56.6696 16.108C55.5336 14.924 54.9656 13.324 54.9656 11.308C54.9656 9.308 55.5336 7.716 56.6696 6.532C57.8216 5.348 59.3576 4.756 61.2776 4.756ZM63.7736 8.092C63.1656 7.308 62.3176 6.916 61.2296 6.916C60.1416 6.916 59.2856 7.308 58.6616 8.092C58.0376 8.876 57.7256 9.948 57.7256 11.308C57.7256 12.7 58.0376 13.788 58.6616 14.572C59.2856 15.356 60.1496 15.748 61.2536 15.748C62.3256 15.748 63.1656 15.356 63.7736 14.572C64.3976 13.772 64.7096 12.676 64.7096 11.284C64.7096 9.924 64.3976 8.86 63.7736 8.092Z" fill="white"/>
</svg>
